<svg width="31" height="35" viewBox="0 0 31 35" fill="none" xmlns="http://www.w3.org/2000/svg">
<path d="M29.8738 1.65345L23.5771 0.0410369C22.8929 -0.133641 22.1906 0.262744 21.9121 0.974894L19.0059 8.4995C18.7516 9.1579 18.9211 9.93052 19.4237 10.3807L23.0927 13.713C20.9131 18.866 17.1048 23.1523 12.3641 25.618L9.36099 21.5466C8.94928 20.989 8.25906 20.8009 7.66571 21.0831L0.884597 24.3079C0.236759 24.6237 -0.120461 25.403 0.036958 26.1622L1.49005 33.1493C1.64142 33.8749 2.22266 34.3989 2.90682 34.3989C18.4126 34.3989 31 20.4583 31 3.22556C31 2.4731 30.5338 1.82141 29.8738 1.65345Z" fill="black"/>
</svg>
