<svg width="1920" height="160" viewBox="0 0 1920 160" fill="none" xmlns="http://www.w3.org/2000/svg">
<path d="M-175 128.379H-129.333C-83.6667 128.379 7.66667 128.379 99 135.142C190.333 141.652 281.667 155.557 373 158.717C464.333 161.877 555.667 155.557 647 131.729C738.333 108.154 829.667 67.7032 875.333 47.4779L921 27.2526V-13.198H875.333C829.667 -13.198 738.333 -13.198 647 -13.198C555.667 -13.198 464.333 -13.198 373 -13.198C281.667 -13.198 190.333 -13.198 99 -13.198C7.66667 -13.198 -83.6667 -13.198 -129.333 -13.198H-175L-175 128.379Z" fill="black"/>
<rect width="1920" height="90" fill="black"/>
</svg>
