<svg width="18" height="21" viewBox="0 0 18 21" fill="none" xmlns="http://www.w3.org/2000/svg">
<path d="M17.3461 1.00941L13.6899 0.0250524C13.2927 -0.081586 12.8849 0.160401 12.7232 0.595158L11.0357 5.18881C10.888 5.59076 10.9865 6.06243 11.2783 6.33722L13.4087 8.37156C12.1431 11.5174 9.9318 14.1341 7.17913 15.6394L5.43541 13.1539C5.19635 12.8135 4.79558 12.6986 4.45106 12.8709L0.513637 14.8396C0.137473 15.0324 -0.0699449 15.5081 0.0214595 15.9716L0.865192 20.2371C0.953081 20.6801 1.29057 21 1.68783 21C10.6912 21 18 12.4894 18 1.96915C18 1.50979 17.7293 1.11194 17.3461 1.00941Z" fill="white"/>
</svg>
