<svg width="982" height="122" viewBox="0 0 982 122" fill="none" xmlns="http://www.w3.org/2000/svg">
<path d="M-114 90.5771H-68.3333C-22.6667 90.5771 68.6667 90.5771 160 97.3399C251.333 103.85 342.667 117.755 434 120.915C525.333 124.075 616.667 117.755 708 93.9269C799.333 70.3518 890.667 29.9012 936.333 9.67588L982 -10.5494V-51H936.333C890.667 -51 799.333 -51 708 -51C616.667 -51 525.333 -51 434 -51C342.667 -51 251.333 -51 160 -51C68.6667 -51 -22.6667 -51 -68.3333 -51H-114L-114 90.5771Z" fill="black"/>
</svg>
