<svg width="64" height="64" viewBox="0 0 64 64" fill="none" xmlns="http://www.w3.org/2000/svg">
<rect width="64" height="64" fill="#00C6DF"/>
<path d="M29.0231 44.0543V29.7525L23.7843 35.0642C23.4227 35.4308 22.8351 35.4308 22.4735 35.0642L20.2712 32.8312C19.9096 32.4646 19.9096 31.8689 20.2712 31.5022L31.3446 20.275C31.7062 19.9083 32.2938 19.9083 32.6554 20.275L43.7288 31.5022C44.0904 31.8689 44.0904 32.4646 43.7288 32.8312L41.5264 35.0642C41.1649 35.4308 40.5773 35.4308 40.2157 35.0642L34.5907 29.3651V44.0585C34.5907 44.5792 34.1757 45 33.662 45H29.9476C29.4381 44.9958 29.0231 44.5709 29.0231 44.0543Z" fill="white"/>
</svg>
