<svg width="64" height="64" viewBox="0 0 64 64" fill="none" xmlns="http://www.w3.org/2000/svg">
<rect width="64" height="64" fill="#FF5437"/>
<path d="M43.604 22.3395C43.484 22.2521 43.3448 22.2222 43.208 22.1847H24.8288C25.3016 22.6266 25.604 23.2631 25.604 23.9745C25.604 24.686 25.3016 25.32 24.8312 25.7644C30.9152 25.7619 36.9992 25.7594 43.0832 25.7594H43.1552C43.352 25.7619 43.5224 25.692 43.6736 25.5671C43.844 25.4274 43.9352 25.2376 44 25.0305V22.9336C43.9328 22.689 43.8104 22.4843 43.604 22.3395ZM23.7968 23.9745C23.7968 25.0654 22.9472 25.9491 21.8984 25.9491C20.8496 25.9491 20 25.0654 20 23.9745C20 22.8837 20.8496 22 21.8984 22C22.9472 22 23.7968 22.8837 23.7968 23.9745ZM43.208 27.5392H24.8288C25.3016 27.9835 25.604 28.6176 25.604 29.329C25.604 30.0404 25.3016 30.677 24.8312 31.1188C30.9152 31.1163 36.9992 31.1163 43.0832 31.1163H43.1552C43.352 31.1188 43.5224 31.0464 43.6736 30.9216C43.844 30.7818 43.9352 30.5921 44 30.3849V28.2881C43.9328 28.0434 43.8104 27.8387 43.604 27.694C43.484 27.6091 43.3448 27.5766 43.208 27.5392ZM23.7968 29.329C23.7968 30.4199 22.9472 31.306 21.8984 31.306C20.8496 31.306 20 30.4199 20 29.329C20 28.2406 20.8496 27.3545 21.8984 27.3545C22.9472 27.3545 23.7968 28.2406 23.7968 29.329ZM43.208 32.8887H24.8288C25.3016 33.333 25.604 33.967 25.604 34.6785C25.604 35.3899 25.3016 36.0265 24.8312 36.4683C30.9152 36.4658 36.9992 36.4658 43.0832 36.4658H43.1552C43.352 36.4683 43.5224 36.3959 43.6736 36.2711C43.844 36.1313 43.9352 35.9416 44 35.7369V33.6375C43.9328 33.3929 43.8104 33.1882 43.604 33.0434C43.484 32.9586 43.3448 32.9261 43.208 32.8887ZM23.7968 34.6785C23.7968 35.7693 22.9472 36.6555 21.8984 36.6555C20.8496 36.6555 20 35.7693 20 34.6785C20 33.5901 20.8496 32.7039 21.8984 32.7039C22.9472 32.7039 23.7968 33.5901 23.7968 34.6785ZM43.208 38.2356H24.8288C25.3016 38.6775 25.604 39.314 25.604 40.0255C25.604 40.7369 25.3016 41.3709 24.8312 41.8153C30.9152 41.8128 36.9992 41.8103 43.0832 41.8103H43.1552C43.352 41.8153 43.5224 41.7429 43.6736 41.6181C43.844 41.4783 43.9352 41.2886 44 41.0814V38.9845C43.9328 38.7399 43.8104 38.5352 43.604 38.3904C43.484 38.303 43.3448 38.2731 43.208 38.2356ZM23.7968 40.0255C23.7968 41.1163 22.9472 42 21.8984 42C20.8496 42 20 41.1163 20 40.0255C20 38.9346 20.8496 38.0509 21.8984 38.0509C22.9472 38.0509 23.7968 38.9346 23.7968 40.0255Z" fill="white"/>
</svg>
