<svg width="64" height="64" viewBox="0 0 64 64" fill="none" xmlns="http://www.w3.org/2000/svg">
<rect width="64" height="64" fill="#B25DF8"/>
<path d="M31.3497 24H32.6409C32.7177 24.0168 32.7944 24.0431 32.8736 24.0479C33.8072 24.1199 34.712 24.3308 35.5855 24.652C38.6838 25.7978 41.2133 27.7369 43.2989 30.2682C44.2468 31.4187 44.2252 32.5885 43.2845 33.751C41.9909 35.3522 40.455 36.6825 38.7246 37.79C37.2991 38.7008 35.7799 39.4031 34.1168 39.7579C33.6296 39.861 33.1328 39.9209 32.6409 40H31.3497C31.2729 39.9832 31.1937 39.9569 31.1145 39.9521C30.3105 39.8849 29.5234 39.7196 28.7602 39.4607C25.4699 38.3461 22.8276 36.3206 20.6365 33.6695C20.2837 33.2428 20.0557 32.7467 20.0077 32.1858C19.9429 31.3828 20.2933 30.7308 20.7853 30.1363C22.1028 28.5471 23.6508 27.2144 25.4003 26.119C26.8571 25.2057 28.4074 24.513 30.1065 24.1894C30.5193 24.1103 30.9345 24.0623 31.3497 24ZM26.9939 32.0012C26.9939 34.741 29.2378 36.9894 31.9809 36.9942C34.7312 37.0013 36.9943 34.7434 36.9943 31.9964C36.9943 29.2566 34.7456 27.0106 32.0025 27.0058C29.2426 27.001 26.9939 29.2446 26.9939 32.0012ZM32.936 29.1727C31.9401 30.0045 31.7217 30.8938 32.3073 31.7399C32.8976 32.5933 33.7856 32.6915 34.9736 32.0372C35.096 33.0583 34.2368 34.3335 33.1184 34.7841C31.8561 35.2923 30.3969 34.8824 29.5906 33.7966C28.7698 32.6915 28.789 31.1934 29.6386 30.1387C30.4449 29.1368 31.8921 28.7125 32.936 29.1727Z" fill="white"/>
</svg>
