<svg width="64" height="64" viewBox="0 0 64 64" fill="none" xmlns="http://www.w3.org/2000/svg">
<rect width="64" height="64" fill="#E738CE"/>
<path d="M33.1613 21.5625H21.5484C20.6932 21.5625 20 22.2621 20 23.125V41.875C20 42.7379 20.6932 43.4375 21.5484 43.4375H33.1613C34.0164 43.4375 34.7097 42.7379 34.7097 41.875V23.125C34.7097 22.2621 34.0164 21.5625 33.1613 21.5625Z" fill="white"/>
<path d="M42.4516 21.5625H38.5806C37.7255 21.5625 37.0322 22.2621 37.0322 23.125V41.875C37.0322 42.7379 37.7255 43.4375 38.5806 43.4375H42.4516C43.3067 43.4375 44 42.7379 44 41.875V23.125C44 22.2621 43.3067 21.5625 42.4516 21.5625Z" fill="white"/>
</svg>
